<svg width="38" height="38" viewBox="0 0 38 38" fill="none" xmlns="http://www.w3.org/2000/svg">
<path d="M19 13.0625V9.5" stroke="white" stroke-width="2" stroke-linecap="round" stroke-linejoin="round"/>
<path d="M19 9.5C25.8578 7.125 19 1.1875 19 1.1875C19 1.1875 11.875 7.125 19 9.5Z" stroke="white" stroke-width="2" stroke-linecap="round" stroke-linejoin="round"/>
<path d="M24.0469 18.7031C24.0469 20.0416 23.5152 21.3253 22.5687 22.2718C21.6222 23.2183 20.3385 23.75 19 23.75C17.6615 23.75 16.3778 23.2183 15.4313 22.2718C14.4848 21.3253 13.9531 20.0416 13.9531 18.7031" stroke="white" stroke-width="2" stroke-linecap="round" stroke-linejoin="round"/>
<path d="M13.9531 18.7031C13.9534 20.0238 13.4359 21.292 12.5118 22.2356C11.5877 23.1791 10.3306 23.7228 9.01013 23.75C6.17497 23.8094 3.85935 21.4344 3.85935 18.5992V16.625C3.85738 16.1566 3.94819 15.6925 4.12652 15.2594C4.30486 14.8263 4.5672 14.4328 4.8984 14.1016C5.2296 13.7704 5.62311 13.508 6.05622 13.3297C6.48932 13.1513 6.95346 13.0605 7.42185 13.0625H30.5781C31.0465 13.0605 31.5106 13.1513 31.9437 13.3297C32.3768 13.508 32.7703 13.7704 33.1015 14.1016C33.4327 14.4328 33.6951 14.8263 33.8734 15.2594C34.0518 15.6925 34.1426 16.1566 34.1406 16.625V18.5992C34.1406 21.4344 31.825 23.8094 28.9898 23.75C27.6694 23.7228 26.4122 23.1791 25.4881 22.2356C24.564 21.292 24.0466 20.0238 24.0468 18.7031" stroke="white" stroke-width="2" stroke-linecap="round" stroke-linejoin="round"/>
<path d="M32.0625 22.7555V30.875C32.0625 31.1899 31.9374 31.492 31.7147 31.7147C31.492 31.9374 31.1899 32.0625 30.875 32.0625H7.125C6.81006 32.0625 6.50801 31.9374 6.28531 31.7147C6.06261 31.492 5.9375 31.1899 5.9375 30.875V22.7555" stroke="white" stroke-width="2" stroke-linecap="round" stroke-linejoin="round"/>
</svg>
